<?xml version="1.0" encoding="UTF-8" standalone="no"?>
<svg
   width="80mm"
   height="100mm"
   viewBox="0 0 80 100"
   version="1.1"
   id="svg970"
   sodipodi:docname="Switch.svg"
   inkscape:version="1.1-dev (0d0750e, 2020-08-02)"
   xmlns:inkscape="http://www.inkscape.org/namespaces/inkscape"
   xmlns:sodipodi="http://sodipodi.sourceforge.net/DTD/sodipodi-0.dtd"
   xmlns="http://www.w3.org/2000/svg"
   xmlns:svg="http://www.w3.org/2000/svg">
  <defs
     id="defs966" />
  <sodipodi:namedview
     id="base"
     pagecolor="#ffffff"
     bordercolor="#666666"
     borderopacity="1.0"
     inkscape:pageopacity="0.0"
     inkscape:pageshadow="2"
     inkscape:zoom="1.979899"
     inkscape:cx="150.00765"
     inkscape:cy="182.58507"
     inkscape:document-units="mm"
     inkscape:current-layer="layer1"
     showgrid="false"
     inkscape:window-width="1920"
     inkscape:window-height="1017"
     inkscape:window-x="-8"
     inkscape:window-y="-8"
     inkscape:window-maximized="1"
     width="50mm" />
  <g
     inkscape:label="Layer 1"
     inkscape:groupmode="layer"
     id="layer1">
    <rect
       style="fill:#000000;fill-opacity:1;stroke:#000000;stroke-width:0"
       id="rect1029"
       width="25"
       height="20"
       x="28.726189"
       y="40.82143" />
    <rect
       style="fill:#ffffff;fill-opacity:0.779116;stroke:#000000;stroke-width:0"
       id="rect1031"
       width="16.819939"
       height="15.497029"
       x="32.694939"
       y="40.82143"
       ry="0" />
    <rect
       style="fill:#000000;fill-opacity:1;stroke:#000000;stroke-width:0"
       id="rect1033"
       width="8.3154736"
       height="11.339285"
       x="36.663692"
       y="29.482145" />
    <rect
       style="fill:#000000;fill-opacity:1;stroke:#000000;stroke-width:0"
       id="rect1035"
       width="8.3154716"
       height="11.339285"
       x="36.663692"
       y="29.482145" />
    <rect
       style="fill:#ffffff;fill-opacity:0.783133;stroke:#000000;stroke-width:0"
       id="rect1037"
       width="8.3154716"
       height="11.339285"
       x="36.663692"
       y="29.482145" />
    <rect
       style="fill:#ffffff;fill-opacity:0.783133;stroke:#000000;stroke-width:0"
       id="rect1042"
       width="2.5104201"
       height="5.4806542"
       x="51.215775"
       y="35.340771"
       ry="0" />
    <rect
       style="fill:#000000;fill-opacity:1;stroke:#000000;stroke-width:0"
       id="rect1044"
       width="40"
       height="2"
       x="16.630953"
       y="31.372023" />
    <path
       style="fill:#c8c8c8;fill-opacity:1;stroke:#000000;stroke-width:0;stroke-linecap:butt;stroke-linejoin:miter;stroke-miterlimit:4;stroke-dasharray:none;stroke-opacity:1"
       d="M 38.222844,29.529389 49.019299,9.6305249 51.918916,11.406116 42.911587,29.468162 Z"
       id="path1050" />
    <path
       style="fill:#000000;fill-opacity:1;stroke:#000000;stroke-width:0.264583px;stroke-linecap:butt;stroke-linejoin:miter;stroke-opacity:1"
       d="m 21.355655,31.324777 -0.04725,-3.260045 0.236236,-0.614212 0.47247,-0.566965 0.661458,-0.377975 0.755953,0.04725 0.708705,0.377976 0.188988,0.425225 0.141741,0.519716 -0.09449,0.992187 -0.04725,2.504094 z"
       id="path1052" />
    <ellipse
       style="fill:#c8c8c8;fill-opacity:1;stroke:#000000;stroke-width:0;stroke-miterlimit:4;stroke-dasharray:none"
       id="path1054"
       cx="22.820312"
       cy="27.946613"
       rx="0.47247022"
       ry="0.4488467" />
    <path
       style="fill:#ff001e;fill-opacity:0.678715;stroke:#000000;stroke-width:0.264583px;stroke-linecap:butt;stroke-linejoin:miter;stroke-opacity:1"
       d="M 21.26116,29.387649 17.434152,26.316592 24.521205,15.827753 51.924479,4.4884673 h 1.842635 l 0.661458,0.283482 0.708705,0.5669642 0.519716,0.5197173 0.141742,0.6614584 -0.04725,0.5669642 -0.755955,0.4724704 -1.322916,0.5197171 3.82701,14.5048361 v 0.755953 l -0.850448,0.755952 -1.748139,0.708705 -1.27567,-0.141741 -1.700892,-0.330729 -27.545013,4.535716 0.09449,-0.992187 -0.141741,-0.519716 -0.188988,-0.425225 -0.708705,-0.377976 -0.755953,-0.04725 -0.661458,0.377975 v 0 l -0.47247,0.566965 -0.236236,0.614212 0.283485,0.992188 z"
       id="path1058" />
    <rect
       style="fill:#c7c7c7;fill-opacity:1;stroke:#000000;stroke-width:0;stroke-miterlimit:4;stroke-dasharray:none"
       id="rect1060"
       width="8.8148775"
       height="0.60534549"
       x="53.726185"
       y="40.82143" />
    <rect
       style="fill:#c7c7c7;fill-opacity:1;stroke:#000000;stroke-width:0;stroke-miterlimit:4;stroke-dasharray:none"
       id="rect1065"
       width="0.80682218"
       height="8.1341076"
       x="52.785732"
       y="60.821426" />
    <rect
       style="fill:#c7c7c7;fill-opacity:1;stroke:#000000;stroke-width:0;stroke-miterlimit:4;stroke-dasharray:none"
       id="rect1067"
       width="0.94072896"
       height="7.5995688"
       x="28.726187"
       y="60.821426" />
  </g>
</svg>
