<?xml version="1.0" encoding="UTF-8"?>
<svg xmlns="http://www.w3.org/2000/svg" width="800.000" height="600.000" viewBox="0.0 0.0 800.000 600.000" version="1.1">
  <title>C:\Users\adick\Documents\Kerbal Kontroller\Parts\Front Plexi cutout.dwg</title>
  <desc>Produce by DWG to SVG Converter MX</desc>
<path d="M236.35 500L204.47 468.12 189.47 483.12 185.25 478.9 221.25 442.9 225.47 447.12 210.47 462.12 242.35 494 236.35 500M264.38 471.97L238.22 445.81 243.29 440.75 247.29 444.75 246.88 441.87 246.83 439.47 247.13 437.55 247.75 435.95 248.63 434.47 249.79 433.12 251.82 431.4 254.18 429.97 256.88 428.84 258.98 434.82 257.16 435.69 255.53 436.75 254.1 438 253.03 439.25 252.25 440.62 251.74 442.1 251.53 443.63 251.65 445.12 252.1 446.58 253.21 448.72 254.62 450.75 256.34 452.67 270.01 466.34 264.38 471.97M258.76 415.53L253.69 410.46 259.32 404.84 264.38 409.9 258.76 415.53M289.79 446.56L263.63 420.4 269.26 414.77 295.41 440.93 289.79 446.56M326.54 403.24L326.54 403.24 325.78 406.54 324.79 409.52 323.56 412.18 322.06 414.64 320.28 417 318.21 419.26 314.61 422.4 311.1 424.5 307.69 425.58 304.53 425.68 301.76 424.87 299.38 423.15 298.26 421.78 297.46 420.24 296.99 418.53 296.82 416.73 296.94 414.91 297.35 413.08 298.02 411.24 298.88 409.41 299.96 407.57 301.02 406.05 302.47 404.16 304.3 401.9 308 397.3 310.84 393.45 312.82 390.34 312.31 389.79 311.93 389.39 311.7 389.15 309.89 387.7 308.09 386.96 306.3 386.92 303.8 387.75 301.17 389.38 298.41 391.81 296.13 394.33 294.55 396.64 293.67 398.74 293.44 400.8 293.8 403.02 294.76 405.4 288.57 410.46 287.44 408.12 286.76 405.8 286.53 403.5 286.79 401.13 287.56 398.6 288.85 395.9 290.62 393.11 292.81 390.3 295.44 387.46 298.18 384.9 300.74 382.87 303.12 381.36 305.31 380.32 307.27 379.68 309 379.45 310.62 379.56 312.21 379.99 313.77 380.72 314.88 381.52 316.34 382.79 318.13 384.52 324.02 390.41 327.66 393.98 330.38 396.46 332.17 397.87 333.55 398.65 335.05 399.26 336.67 399.68 330.95 405.4 329.45 404.92 327.98 404.21 326.54 403.24M316.32 393.77L316.32 393.77 314.55 396.79 312.04 400.42 308.77 404.67 306.95 407.03 305.6 408.97 304.73 410.47 304.22 411.74 303.96 412.96 303.94 414.14 304.16 415.23 304.6 416.19 305.26 417.02 306.56 417.95 308.11 418.36 309.91 418.26 311.88 417.61 313.94 416.33 316.08 414.45 318.05 412.23 319.61 409.93 320.76 407.54 321.46 405.16 321.68 402.9 321.42 400.75 320.77 399.09 319.6 397.32 317.91 395.43 316.32 393.77M345.86 390.49L309.76 354.4 315.38 348.77 351.48 384.87 345.86 390.49M406.07 330.28L352.23 311.93 358.79 305.36 396.89 319.67 399.86 320.82 402.63 321.99 405.2 323.17 403.98 320.46 402.83 317.68 401.75 314.81 387.86 276.3 394.05 270.11 412.28 324.07 406.07 330.28M449.21 270.26L455.55 265.04 456.85 268.69 457.24 272.46 456.7 276.34 455.24 280.27 452.82 284.16 449.46 288.02 444.56 292.13 439.55 294.78 434.43 295.99 429.4 295.68 424.69 293.8 420.29 290.35 416.7 285.8 414.72 280.96 414.36 275.83 415.48 270.66 417.98 265.73 421.86 261.05 426.41 257.29 431.21 254.87 436.27 253.79 441.31 254.16 446.06 256.11 450.52 259.64 450.83 259.95 451.21 260.36 451.68 260.86 426.96 285.58 430.06 287.72 433.28 288.87 436.59 289.03 439.86 288.28 442.93 286.72 445.8 284.36 447.62 282.26 448.96 280.07 449.81 277.8 450.15 275.43 449.95 272.91 449.21 270.26M423.58 281.64L442.14 263.08 439.73 261.47 437.37 260.53 435.07 260.26 431.68 260.81 428.5 262.29 425.53 264.68 423.31 267.36 421.81 270.22 421.05 273.25 421.06 276.27 421.9 279.06 423.58 281.64M472.71 263.64L446.55 237.48 451.61 232.42 455.62 236.42 455.21 233.54 455.15 231.14 455.46 229.23 456.08 227.62 456.96 226.14 458.12 224.79 460.15 223.07 462.51 221.65 465.21 220.51 467.3 226.49 465.49 227.36 463.86 228.42 462.42 229.67 461.36 230.93 460.58 232.29 460.06 233.78 459.86 235.3 459.98 236.79 460.43 238.25 461.54 240.39 462.95 242.42 464.66 244.34 478.33 258.01 472.71 263.64M487.9 232.51L492.87 226.42 494.98 227.54 497.2 228.01 499.51 227.84 501.91 227.01 504.37 225.48 506.9 223.26 509.12 220.76 510.63 218.43 511.41 216.27 511.58 214.36 511.24 212.77 510.38 211.5 509.28 210.75 507.95 210.51 506.4 210.78 504.82 211.5 502.41 212.92 499.16 215.03 494.68 217.95 491.11 220.1 488.46 221.48 486.32 222.27 484.28 222.65 482.35 222.62 480.57 222.21 478.99 221.45 477.61 220.35 476.59 219.1 475.85 217.68 475.39 216.1 475.21 214.41 475.3 212.66 475.68 210.87 476.17 209.41 476.93 207.79 477.95 206.01 479.2 204.17 480.64 202.38 482.27 200.63 484.86 198.24 487.44 196.25 490 194.67 492.45 193.54 494.7 192.89 496.74 192.72 498.7 193 500.69 193.7 502.71 194.82 497.84 200.82 496.2 200 494.44 199.69 492.56 199.89 490.58 200.63 488.51 201.95 486.37 203.85 484.14 206.3 482.63 208.48 481.84 210.39 481.63 212.02 481.86 213.35 482.53 214.4 483.16 214.87 483.9 215.16 484.76 215.25 485.75 215.15 486.86 214.82 488.09 214.27 489.25 213.58 491.29 212.3 494.19 210.43 498.55 207.64 502 205.56 504.54 204.18 506.6 203.35 508.59 202.91 510.52 202.85 512.36 203.21 514.06 204.03 515.64 205.31 516.9 206.94 517.75 208.87 518.17 211.11 518.12 213.57 517.56 216.15 516.48 218.86 514.92 221.6 512.96 224.28 510.57 226.9 506.37 230.62 502.38 233.18 498.59 234.58 494.94 234.89 491.38 234.2 487.9 232.51M500.93 173.35L495.87 168.29 501.49 162.66 506.55 167.73 500.93 173.35M531.96 204.38L505.8 178.23 511.43 172.6 537.59 198.76 531.96 204.38M535.2 174.99L535.2 174.99 531.35 170.01 529.47 164.73 529.56 159.15 530.99 154.49 533.49 150.06 537.04 145.86 541.7 141.99 546.58 139.46 551.7 138.26 556.75 138.51 561.44 140.32 565.77 143.68 568.68 147.02 570.68 150.3 571.78 153.52 572.1 156.77 571.74 160.12 570.7 163.57 569.08 166.97 566.95 170.16 564.33 173.15 559.61 177.08 554.7 179.65 549.6 180.84 544.54 180.53 539.74 178.58 535.2 174.99M540.9 169.26L540.9 169.26 544.27 172.01 547.7 173.59 551.19 173.99 554.58 173.36 557.74 171.86 560.67 169.49 563.02 166.58 564.51 163.43 565.12 160.03 564.7 156.52 563.08 153.05 560.26 149.61 556.98 146.96 553.61 145.44 550.13 145.07 546.74 145.7 543.59 147.18 540.7 149.52 538.32 152.45 536.82 155.6 536.19 158.99 536.58 162.47 538.15 165.89 540.9 169.26M587.94 148.41L561.78 122.25 566.84 117.19 570.55 120.9 570.96 115.75 573.03 110.83 576.77 106.14 578.79 104.3 580.9 102.76 583.09 101.51 585.24 100.61 587.23 100.11 589.06 100 590.78 100.23 592.45 100.74 594.07 101.53 595.26 102.39 596.8 103.72 598.68 105.53 614.75 121.6 609.12 127.22 593.23 111.33 591.51 109.75 589.94 108.62 588.54 107.93 587.16 107.65 585.68 107.7 584.09 108.1 582.48 108.82 580.92 109.85 579.41 111.18 577.35 113.65 575.9 116.29 575.06 119.12 575.18 122.11 576.59 125.24 579.29 128.52 593.56 142.79 587.94 148.41"
fill="none" stroke="RGB(180,50,50)" stroke-width="0.2"/>
<path d="M798.53 300L1.47 300"
fill="none" stroke="black" stroke-width="0.5"/>
 798.53 300<path d="M81.17 300L83.09 300 88.55 300 96.71 300 106.34 300 115.98 300 124.14 300 129.6 300 131.51 300 129.6 300 124.14 300 115.98 300 106.34 300 96.71 300 88.55 300 83.09 300 81.17 300Z"
fill="none" stroke="black" stroke-width="0.5"/>
 83.09 300 88.55 300 96.71 300 106.34 300 115.98 300 124.14 300 129.6 300 131.51 300 129.6 300 124.14 300 115.98 300 106.34 300 96.71 300 88.55 300 83.09 300 81.17 300 83.09 300 88.55 300 96.71 300 106.34 300 115.98 300 124.14 300 129.6 300 131.51 300 129.6 300 124.14 300 115.98 300 106.34 300 96.71 300 88.55 300 83.09 300 81.17 300 83.09 300 88.55 300 96.71 300 106.34 300 115.98 300 124.14 300 129.6 300 131.51 300 129.6 300 124.14 300 115.98 300 106.34 300 96.71 300 88.55 300 83.09 300 81.17 300 83.09 300 88.55 300 96.71 300 106.34 300 115.98 300 124.14 300 129.6 300 131.51 300 129.6 300 124.14 300 115.98 300 106.34 300 96.71 300 88.55 300 83.09 300 81.17 300 83.09 300 88.55 300 96.71 300 106.34 300 115.98 300 124.14 300 129.6 300 131.51 300 129.6 300 124.14 300 115.98 300 106.34 300 96.71 300 88.55 300 83.09 300 81.17 300<path d="M56 300L114.73 300"
fill="none" stroke="black" stroke-width="0.5"/>
 56 300<path d="M181.86 300L240.59 300"
fill="none" stroke="black" stroke-width="0.5"/>
 181.86 300<path d="M307.71 300L366.44 300"
fill="none" stroke="black" stroke-width="0.5"/>
 307.71 300<path d="M433.56 300L492.29 300"
fill="none" stroke="black" stroke-width="0.5"/>
 433.56 300<path d="M559.41 300L618.14 300"
fill="none" stroke="black" stroke-width="0.5"/>
 559.41 300<path d="M751.33 300L692.6 300"
fill="none" stroke="black" stroke-width="0.5"/>
 751.33 300<path d="M265.76 300L324.49 300"
fill="none" stroke="black" stroke-width="0.5"/>
 265.76 300<path d="M517.46 300L576.19 300"
fill="none" stroke="black" stroke-width="0.5"/>
 517.46 300<path d="M643.32 300L702.05 300"
fill="none" stroke="black" stroke-width="0.5"/>
 643.32 300<path d="M391.61 300L450.34 300"
fill="none" stroke="black" stroke-width="0.5"/>
 391.61 300<path d="M265.76 300L324.49 300"
fill="none" stroke="black" stroke-width="0.5"/>
 265.76 300<path d="M517.46 300L576.19 300"
fill="none" stroke="black" stroke-width="0.5"/>
 517.46 300<path d="M643.32 300L702.05 300"
fill="none" stroke="black" stroke-width="0.5"/>
 643.32 300<path d="M500.68 300L559.41 300"
fill="none" stroke="black" stroke-width="0.5"/>
 500.68 300<path d="M467.12 300L408.39 300"
fill="none" stroke="black" stroke-width="0.5"/>
 467.12 300<path d="M265.76 300L324.49 300"
fill="none" stroke="black" stroke-width="0.5"/>
 265.76 300<path d="M412.59 300L471.32 300"
fill="none" stroke="black" stroke-width="0.5"/>
 412.59 300<path d="M643.32 300L702.05 300"
fill="none" stroke="black" stroke-width="0.5"/>
 643.32 300 702.05 300 643.32 300 702.05 300 643.32 300<path d="M181.86 300L240.59 300"
fill="none" stroke="black" stroke-width="0.5"/>
 181.86 300<path d="M56 300L114.73 300"
fill="none" stroke="black" stroke-width="0.5"/>
 56 300<path d="M530.05 300L531.28 300 534.24 300 537.21 300 538.44 300 537.21 300 534.24 300 531.28 300 530.05 300Z"
fill="none" stroke="black" stroke-width="0.5"/>
<path d="M236.39 300L237.62 300 240.59 300 243.55 300 244.78 300 243.55 300 240.59 300 237.62 300 236.39 300Z"
fill="none" stroke="black" stroke-width="0.5"/>
<path d="M215.42 300L216.64 300 219.61 300 222.58 300 223.81 300 222.58 300 219.61 300 216.64 300 215.42 300Z"
fill="none" stroke="black" stroke-width="0.5"/>
</svg>
